<svg xmlns="http://www.w3.org/2000/svg" style="display: none;"><symbol id="user" viewBox="0 0 438.529 438.529"><title>user</title><path d="M219.265,219.267c30.271,0,56.108-10.71,77.518-32.121c21.412-21.411,32.12-47.248,32.12-77.515 c0-30.262-10.708-56.1-32.12-77.516C275.366,10.705,249.528,0,219.265,0S163.16,10.705,141.75,32.115 c-21.414,21.416-32.121,47.253-32.121,77.516c0,30.267,10.707,56.104,32.121,77.515 C163.166,208.557,189.001,219.267,219.265,219.267z"/><path d="M419.258,335.036c-0.668-9.609-2.002-19.985-3.997-31.121c-1.999-11.136-4.524-21.457-7.57-30.978 c-3.046-9.514-7.139-18.794-12.278-27.836c-5.137-9.041-11.037-16.748-17.703-23.127c-6.666-6.377-14.801-11.465-24.406-15.271 c-9.617-3.805-20.229-5.711-31.84-5.711c-1.711,0-5.709,2.046-11.991,6.139c-6.276,4.093-13.367,8.662-21.266,13.708 c-7.898,5.037-18.182,9.609-30.834,13.695c-12.658,4.093-25.361,6.14-38.118,6.14c-12.752,0-25.456-2.047-38.112-6.14 c-12.655-4.086-22.936-8.658-30.835-13.695c-7.898-5.046-14.987-9.614-21.267-13.708c-6.283-4.093-10.278-6.139-11.991-6.139 c-11.61,0-22.222,1.906-31.833,5.711c-9.613,3.806-17.749,8.898-24.412,15.271c-6.661,6.379-12.562,14.086-17.699,23.127 c-5.137,9.042-9.229,18.326-12.275,27.836c-3.045,9.521-5.568,19.842-7.566,30.978c-2,11.136-3.332,21.505-3.999,31.121 c-0.666,9.616-0.998,19.466-0.998,29.554c0,22.836,6.949,40.875,20.842,54.104c13.896,13.224,32.36,19.835,55.39,19.835h249.533 c23.028,0,41.49-6.611,55.388-19.835c13.901-13.229,20.845-31.265,20.845-54.104C420.264,354.502,419.932,344.652,419.258,335.036 z"/></symbol><symbol id="mail" viewBox="0 0 511.626 511.626"><title>mail</title><path d="M49.106,178.729c6.472,4.567,25.981,18.131,58.528,40.685c32.548,22.554,57.482,39.92,74.803,52.099 c1.903,1.335,5.946,4.237,12.131,8.71c6.186,4.476,11.326,8.093,15.416,10.852c4.093,2.758,9.041,5.852,14.849,9.277 c5.806,3.422,11.279,5.996,16.418,7.7c5.14,1.718,9.898,2.569,14.275,2.569h0.287h0.288c4.377,0,9.137-0.852,14.277-2.569 c5.137-1.704,10.615-4.281,16.416-7.7c5.804-3.429,10.752-6.52,14.845-9.277c4.093-2.759,9.229-6.376,15.417-10.852 c6.184-4.477,10.232-7.375,12.135-8.71c17.508-12.179,62.051-43.11,133.615-92.79c13.894-9.703,25.502-21.411,34.827-35.116 c9.332-13.699,13.993-28.07,13.993-43.105c0-12.564-4.523-23.319-13.565-32.264c-9.041-8.947-19.749-13.418-32.117-13.418H45.679 c-14.655,0-25.933,4.948-33.832,14.844C3.949,79.562,0,91.934,0,106.779c0,11.991,5.236,24.985,15.703,38.974 C26.169,159.743,37.307,170.736,49.106,178.729z"/><path d="M483.072,209.275c-62.424,42.251-109.824,75.087-142.177,98.501c-10.849,7.991-19.65,14.229-26.409,18.699 c-6.759,4.473-15.748,9.041-26.98,13.702c-11.228,4.668-21.692,6.995-31.401,6.995h-0.291h-0.287 c-9.707,0-20.177-2.327-31.405-6.995c-11.228-4.661-20.223-9.229-26.98-13.702c-6.755-4.47-15.559-10.708-26.407-18.699 c-25.697-18.842-72.995-51.68-141.896-98.501C17.987,202.047,8.375,193.762,0,184.437v226.685c0,12.57,4.471,23.319,13.418,32.265 c8.945,8.949,19.701,13.422,32.264,13.422h420.266c12.56,0,23.315-4.473,32.261-13.422c8.949-8.949,13.418-19.694,13.418-32.265 V184.437C503.441,193.569,493.927,201.854,483.072,209.275z"/></symbol><symbol id="phone" viewBox="0 0 401.998 401.998"><title>phone</title><path d="M401.129,311.475c-1.137-3.426-8.371-8.473-21.697-15.129c-3.61-2.098-8.754-4.949-15.41-8.566 c-6.662-3.617-12.709-6.95-18.13-9.996c-5.432-3.045-10.521-5.995-15.276-8.846c-0.76-0.571-3.139-2.234-7.136-5 c-4.001-2.758-7.375-4.805-10.14-6.14c-2.759-1.327-5.473-1.995-8.138-1.995c-3.806,0-8.56,2.714-14.268,8.135 c-5.708,5.428-10.944,11.324-15.7,17.706c-4.757,6.379-9.802,12.275-15.126,17.7c-5.332,5.427-9.713,8.138-13.135,8.138 c-1.718,0-3.86-0.479-6.427-1.424c-2.566-0.951-4.518-1.766-5.858-2.423c-1.328-0.671-3.607-1.999-6.845-4.004 c-3.244-1.999-5.048-3.094-5.428-3.285c-26.075-14.469-48.438-31.029-67.093-49.676c-18.649-18.658-35.211-41.019-49.676-67.097 c-0.19-0.381-1.287-2.19-3.284-5.424c-2-3.237-3.333-5.518-3.999-6.854c-0.666-1.331-1.475-3.283-2.425-5.852 s-1.427-4.709-1.427-6.424c0-3.424,2.713-7.804,8.138-13.134c5.424-5.327,11.326-10.373,17.7-15.128 c6.379-4.755,12.275-9.991,17.701-15.699c5.424-5.711,8.136-10.467,8.136-14.273c0-2.663-0.666-5.378-1.997-8.137 c-1.332-2.765-3.378-6.139-6.139-10.138c-2.762-3.997-4.427-6.374-4.999-7.139c-2.852-4.755-5.799-9.846-8.848-15.271 c-3.049-5.424-6.377-11.47-9.995-18.131c-3.615-6.658-6.468-11.799-8.564-15.415C98.986,9.233,93.943,1.997,90.516,0.859 C89.183,0.288,87.183,0,84.521,0c-5.142,0-11.85,0.95-20.129,2.856c-8.282,1.903-14.799,3.899-19.558,5.996 c-9.517,3.995-19.604,15.605-30.264,34.826C4.863,61.566,0.01,79.271,0.01,96.78c0,5.135,0.333,10.131,0.999,14.989 c0.666,4.853,1.856,10.326,3.571,16.418c1.712,6.09,3.093,10.614,4.137,13.56c1.045,2.948,2.996,8.229,5.852,15.845 c2.852,7.614,4.567,12.275,5.138,13.988c6.661,18.654,14.56,35.307,23.695,49.964c15.03,24.362,35.541,49.539,61.521,75.521 c25.981,25.98,51.153,46.49,75.517,61.526c14.655,9.134,31.314,17.032,49.965,23.698c1.714,0.568,6.375,2.279,13.986,5.141 c7.614,2.854,12.897,4.805,15.845,5.852c2.949,1.048,7.474,2.43,13.559,4.145c6.098,1.715,11.566,2.905,16.419,3.576 c4.856,0.657,9.853,0.996,14.989,0.996c17.508,0,35.214-4.856,53.105-14.562c19.219-10.656,30.826-20.745,34.823-30.269 c2.102-4.754,4.093-11.273,5.996-19.555c1.909-8.278,2.857-14.985,2.857-20.126C401.99,314.814,401.703,312.819,401.129,311.475z"/></symbol><symbol id="clock" viewBox="0 0 438.533 438.533"><title>clock</title><path d="M409.133,109.203c-19.608-33.592-46.205-60.189-79.798-79.796C295.736,9.801,259.058,0,219.273,0 c-39.781,0-76.47,9.801-110.063,29.407c-33.595,19.604-60.192,46.201-79.8,79.796C9.801,142.8,0,179.489,0,219.267 c0,39.78,9.804,76.463,29.407,110.062c19.607,33.592,46.204,60.189,79.799,79.798c33.597,19.605,70.283,29.407,110.063,29.407 s76.47-9.802,110.065-29.407c33.593-19.602,60.189-46.206,79.795-79.798c19.603-33.596,29.403-70.284,29.403-110.062 C438.533,179.485,428.732,142.795,409.133,109.203z M353.742,297.208c-13.894,23.791-32.736,42.64-56.527,56.534 c-23.791,13.894-49.771,20.834-77.945,20.834c-28.167,0-54.149-6.94-77.943-20.834c-23.791-13.895-42.633-32.743-56.527-56.534 c-13.897-23.791-20.843-49.772-20.843-77.941c0-28.171,6.949-54.152,20.843-77.943c13.891-23.791,32.738-42.637,56.527-56.53 c23.791-13.895,49.772-20.84,77.943-20.84c28.173,0,54.154,6.945,77.945,20.84c23.791,13.894,42.634,32.739,56.527,56.53 c13.895,23.791,20.838,49.772,20.838,77.943C374.58,247.436,367.637,273.417,353.742,297.208z"/><path d="M246.68,109.631h-18.274c-2.669,0-4.853,0.859-6.57,2.57c-1.706,1.713-2.565,3.9-2.565,6.565v100.5h-63.953 c-2.667,0-4.853,0.855-6.567,2.564c-1.712,1.712-2.568,3.901-2.568,6.571v18.271c0,2.666,0.856,4.856,2.568,6.567 c1.715,1.711,3.905,2.566,6.567,2.566h91.367c2.662,0,4.853-0.855,6.561-2.566c1.711-1.711,2.573-3.901,2.573-6.567V118.766 c0-2.663-0.862-4.849-2.573-6.565C251.536,110.49,249.346,109.631,246.68,109.631z"/></symbol><symbol id="cog" viewBox="0 0 438.529 438.529"><title>cog</title><path d="M436.25,181.438c-1.529-2.002-3.524-3.193-5.995-3.571l-52.249-7.992c-2.854-9.137-6.756-18.461-11.704-27.98 c3.422-4.758,8.559-11.466,15.41-20.129c6.851-8.661,11.703-14.987,14.561-18.986c1.523-2.094,2.279-4.281,2.279-6.567 c0-2.663-0.66-4.755-1.998-6.28c-6.848-9.708-22.552-25.885-47.106-48.536c-2.275-1.903-4.661-2.854-7.132-2.854 c-2.857,0-5.14,0.855-6.854,2.567l-40.539,30.549c-7.806-3.999-16.371-7.52-25.693-10.565l-7.994-52.529 c-0.191-2.474-1.287-4.521-3.285-6.139C255.95,0.806,253.623,0,250.954,0h-63.38c-5.52,0-8.947,2.663-10.278,7.993 c-2.475,9.513-5.236,27.214-8.28,53.1c-8.947,2.86-17.607,6.476-25.981,10.853l-39.399-30.549 c-2.474-1.903-4.948-2.854-7.422-2.854c-4.187,0-13.179,6.804-26.979,20.413c-13.8,13.612-23.169,23.841-28.122,30.69 c-1.714,2.474-2.568,4.664-2.568,6.567c0,2.286,0.95,4.57,2.853,6.851c12.751,15.42,22.936,28.549,30.55,39.403 c-4.759,8.754-8.47,17.511-11.132,26.265l-53.105,7.992c-2.093,0.382-3.9,1.621-5.424,3.715C0.76,182.531,0,184.722,0,187.002 v63.383c0,2.478,0.76,4.709,2.284,6.708c1.524,1.998,3.521,3.195,5.996,3.572l52.25,7.71c2.663,9.325,6.564,18.743,11.704,28.257 c-3.424,4.761-8.563,11.468-15.415,20.129c-6.851,8.665-11.709,14.989-14.561,18.986c-1.525,2.102-2.285,4.285-2.285,6.57 c0,2.471,0.666,4.658,1.997,6.561c7.423,10.284,23.125,26.272,47.109,47.969c2.095,2.094,4.475,3.138,7.137,3.138 c2.857,0,5.236-0.852,7.138-2.563l40.259-30.553c7.808,3.997,16.371,7.519,25.697,10.568l7.993,52.529 c0.193,2.471,1.287,4.518,3.283,6.14c1.997,1.622,4.331,2.423,6.995,2.423h63.38c5.53,0,8.952-2.662,10.287-7.994 c2.471-9.514,5.229-27.213,8.274-53.098c8.946-2.858,17.607-6.476,25.981-10.855l39.402,30.84c2.663,1.712,5.141,2.563,7.42,2.563 c4.186,0,13.131-6.752,26.833-20.27c13.709-13.511,23.13-23.79,28.264-30.837c1.711-1.902,2.569-4.09,2.569-6.561 c0-2.478-0.947-4.862-2.857-7.139c-13.698-16.754-23.883-29.882-30.546-39.402c3.806-7.043,7.519-15.701,11.136-25.98l52.817-7.988 c2.279-0.383,4.189-1.622,5.708-3.716c1.523-2.098,2.279-4.288,2.279-6.571v-63.376 C438.533,185.671,437.777,183.438,436.25,181.438z M270.946,270.939c-14.271,14.277-31.497,21.416-51.676,21.416 c-20.177,0-37.401-7.139-51.678-21.416c-14.272-14.271-21.411-31.498-21.411-51.673c0-20.177,7.135-37.401,21.411-51.678 c14.277-14.272,31.504-21.411,51.678-21.411c20.179,0,37.406,7.139,51.676,21.411c14.274,14.277,21.413,31.501,21.413,51.678 C292.359,239.441,285.221,256.669,270.946,270.939z"/></symbol><symbol id="rocket" viewBox="0 0 466.227 466.227"><title>rocket</title><path d="M463.36,2.852c-1.906-1.805-4.188-2.712-6.854-2.712c-49.677,0-90.694,6.755-123.051,20.271 c-32.353,13.518-66.424,38.072-102.208,73.662c-15.225,15.418-31.977,33.977-50.248,55.675l-108.205,5.708 c-3.046,0.387-5.52,1.906-7.423,4.57L1.418,269.666c-2.285,3.806-1.807,7.519,1.427,11.136l18.271,18.271 c1.714,1.714,3.901,2.569,6.567,2.569c1.143,0,1.997-0.096,2.568-0.287l78.802-24.273l80.228,80.232l-24.269,78.795 c-0.949,3.43-0.188,6.472,2.285,9.138l18.272,18.274c2.094,1.707,4.285,2.566,6.567,2.566c1.716,0,3.238-0.384,4.569-1.144 l109.639-63.953c2.666-1.902,4.186-4.373,4.568-7.419l5.708-108.209c21.7-18.274,40.262-35.022,55.676-50.251 c33.89-34.074,58.009-68.378,72.375-102.923c14.373-34.547,21.556-75.519,21.556-122.91C466.224,6.804,465.273,4.664,463.36,2.852z M394.277,110.92c-5.325,5.326-11.8,7.994-19.414,7.994s-14.082-2.665-19.414-7.994c-5.325-5.33-7.994-11.802-7.994-19.417 c0-7.611,2.666-14.084,7.994-19.414c5.328-5.327,11.8-7.993,19.414-7.993s14.086,2.663,19.414,7.993s7.994,11.803,7.994,19.414 C402.271,99.119,399.612,105.586,394.277,110.92z"/></symbol><symbol id="logo" viewBox="0 0 438.54 438.539"><title>logo</title><path d="M182.156,140.477V2.004c-34.073,5.708-65.002,18.748-92.793,39.115c-27.79,20.367-49.632,46.015-65.524,76.944 C7.946,148.998,0,182.258,0,217.85c0,53.293,17.227,100.403,51.676,141.325c38.831-18.843,70.283-48.01,94.361-87.508 C170.116,232.168,182.156,188.443,182.156,140.477z"/><path d="M414.697,118.056c-15.892-30.929-37.732-56.582-65.521-76.944C321.388,20.745,290.453,7.708,256.388,2v138.473 c0,47.967,12.043,91.695,36.114,131.194c24.078,39.498,55.538,68.665,94.366,87.508c34.454-40.922,51.671-88.032,51.671-141.325 C438.533,182.254,430.597,148.991,414.697,118.056z"/><path d="M256.245,349.466c-18.556-23.599-31.173-49.107-37.831-76.52c-6.471,27.412-18.986,52.921-37.544,76.52 c-18.559,23.596-40.968,43.681-67.237,60.237c32.548,17.891,67.475,26.836,104.781,26.836c37.495,0,72.517-8.945,105.059-26.836 C297.214,393.146,274.806,373.065,256.245,349.466z"/></symbol><symbol id="money" viewBox="0 0 511.613 511.613"><title>money</title><path d="M385.261,311.475c-2.471-8.367-5.469-15.649-8.99-21.833c-3.519-6.19-8.559-12.228-15.13-18.134 c-6.563-5.903-12.467-10.657-17.702-14.271c-5.232-3.617-12.419-7.661-21.557-12.137c-9.13-4.475-16.364-7.805-21.689-9.995 c-5.332-2.187-13.045-5.185-23.134-8.992c-8.945-3.424-15.605-6.042-19.987-7.849c-4.377-1.809-10.133-4.377-17.271-7.71 c-7.135-3.328-12.465-6.28-15.987-8.848c-3.521-2.568-7.279-5.708-11.277-9.419c-3.998-3.711-6.805-7.661-8.424-11.848 c-1.615-4.188-2.425-8.757-2.425-13.706c0-12.94,5.708-23.507,17.128-31.689c11.421-8.182,26.174-12.275,44.257-12.275 c7.99,0,16.136,1.093,24.41,3.284s15.365,4.659,21.266,7.421c5.906,2.762,11.471,5.808,16.707,9.137 c5.235,3.332,8.945,5.852,11.136,7.565c2.189,1.714,3.576,2.855,4.141,3.427c2.478,1.903,5.041,2.568,7.706,1.999 c2.854-0.19,5.045-1.715,6.571-4.567l23.13-41.684c2.283-3.805,1.811-7.422-1.427-10.85c-1.144-1.142-2.566-2.473-4.291-3.997 c-1.708-1.524-5.421-4.283-11.136-8.282c-5.709-3.996-11.752-7.565-18.124-10.706c-6.379-3.138-14.661-6.328-24.845-9.562 c-10.178-3.239-20.697-5.426-31.549-6.567V9.136c0-2.663-0.855-4.853-2.563-6.567C282.493,0.859,280.303,0,277.634,0h-38.546 c-2.474,0-4.615,0.903-6.423,2.712s-2.712,3.949-2.712,6.424v51.391c-29.884,5.708-54.152,18.461-72.805,38.256 c-18.651,19.796-27.98,42.823-27.98,69.092c0,7.803,0.812,15.226,2.43,22.265c1.616,7.045,3.616,13.374,5.996,18.988 c2.378,5.618,5.758,11.136,10.135,16.562c4.377,5.424,8.518,10.088,12.419,13.988c3.903,3.899,8.995,7.945,15.274,12.131 c6.283,4.19,11.66,7.571,16.134,10.139c4.475,2.56,10.422,5.52,17.843,8.843c7.423,3.333,13.278,5.852,17.561,7.569 c4.283,1.711,10.135,4.093,17.561,7.132c10.277,3.997,17.892,7.091,22.84,9.281c4.952,2.19,11.231,5.235,18.849,9.137 c7.611,3.898,13.176,7.468,16.7,10.705c3.521,3.237,6.708,7.234,9.565,11.991s4.288,9.801,4.288,15.133 c0,15.037-5.853,26.645-17.562,34.823c-11.704,8.187-25.27,12.279-40.685,12.279c-7.036,0-14.084-0.757-21.124-2.279 c-24.744-4.955-47.869-16.851-69.377-35.693l-0.571-0.571c-1.714-2.088-3.999-2.946-6.851-2.563 c-3.046,0.38-5.236,1.523-6.567,3.43l-29.408,38.54c-2.856,3.806-2.663,7.707,0.572,11.704c0.953,1.143,2.618,2.86,4.996,5.14 c2.384,2.289,6.81,5.852,13.278,10.715c6.47,4.856,13.513,9.418,21.128,13.706c7.614,4.281,17.272,8.514,28.98,12.703 c11.708,4.182,23.839,7.131,36.402,8.843v49.963c0,2.478,0.905,4.617,2.712,6.427c1.809,1.811,3.949,2.711,6.423,2.711h38.546 c2.669,0,4.859-0.855,6.57-2.566s2.563-3.901,2.563-6.571v-49.963c30.269-4.948,54.87-17.939,73.806-38.972 c18.938-21.033,28.41-46.11,28.41-75.229C388.994,328.801,387.759,319.855,385.261,311.475z"/></symbol><symbol id="music" viewBox="0 0 475.082 475.081"><title>music</title><path d="M455.955,169.876c-12.765-26.647-29.793-49.726-51.106-69.234c-21.32-19.508-46.644-35.072-75.951-46.682 s-59.758-17.416-91.358-17.416c-31.595,0-62.047,5.809-91.359,17.416c-29.314,11.606-54.626,27.17-75.946,46.682 s-38.354,42.587-51.106,69.234C6.375,196.526,0,224.222,0,252.955c0,31.601,5.708,61.483,17.129,89.654l5.712,13.99l52.817,9.417 c4.187,15.797,12.801,28.787,25.841,38.972c13.035,10.178,27.928,15.27,44.68,15.27v9.138c0,2.662,0.854,4.853,2.568,6.563 c1.713,1.711,3.903,2.57,6.567,2.57h18.271c2.663,0,4.853-0.859,6.567-2.57c1.709-1.711,2.568-3.901,2.568-6.563V264.943 c0-2.666-0.855-4.855-2.568-6.567c-1.715-1.711-3.905-2.566-6.567-2.566h-18.271c-2.667,0-4.854,0.855-6.567,2.566 c-1.714,1.712-2.568,3.901-2.568,6.567v9.134c-13.518,0-25.887,3.381-37.119,10.14c-11.231,6.752-20.08,15.842-26.552,27.265 l-19.417-3.429c-5.515-18.09-8.276-36.453-8.276-55.107c0-28.168,8.372-54.719,25.122-79.652 c16.751-24.934,39.259-44.827,67.524-59.671c28.265-14.845,58.291-22.266,90.078-22.266c31.778,0,61.812,7.421,90.078,22.266 c28.268,14.844,50.771,34.737,67.526,59.671c16.748,24.934,25.126,51.484,25.126,79.652c0,18.654-2.759,37.018-8.275,55.107 l-19.421,3.432c-6.478-11.426-15.324-20.509-26.549-27.264c-11.231-6.759-23.609-10.144-37.12-10.144v-9.13 c0-2.666-0.853-4.856-2.57-6.567c-1.707-1.708-3.897-2.57-6.563-2.57h-18.274c-2.662,0-4.853,0.862-6.563,2.57 c-1.715,1.711-2.57,3.901-2.57,6.567v164.455c0,2.662,0.855,4.853,2.57,6.563c1.711,1.711,3.901,2.57,6.563,2.57h18.274 c2.666,0,4.856-0.859,6.563-2.57c1.718-1.711,2.57-3.901,2.57-6.563v-9.138c16.748,0,31.642-5.092,44.68-15.27 c13.042-10.185,21.652-23.175,25.837-38.972l52.818-9.418l5.715-13.989c11.416-28.171,17.128-58.054,17.128-89.653 C475.082,224.222,468.709,196.526,455.955,169.876z"/></symbol><symbol id="lock" viewBox="0 0 438.533 438.533"><title>lock</title><path d="M375.721,227.259c-5.331-5.331-11.8-7.992-19.417-7.992H146.176v-91.36c0-20.179,7.139-37.402,21.415-51.678 c14.277-14.273,31.501-21.411,51.678-21.411c20.175,0,37.402,7.137,51.673,21.411c14.277,14.276,21.416,31.5,21.416,51.678 c0,4.947,1.807,9.229,5.42,12.845c3.621,3.617,7.905,5.426,12.847,5.426h18.281c4.945,0,9.227-1.809,12.848-5.426 c3.606-3.616,5.42-7.898,5.42-12.845c0-35.216-12.515-65.331-37.541-90.362C284.603,12.513,254.48,0,219.269,0 c-35.214,0-65.334,12.513-90.366,37.544c-25.028,25.028-37.542,55.146-37.542,90.362v91.36h-9.135 c-7.611,0-14.084,2.667-19.414,7.992c-5.33,5.325-7.994,11.8-7.994,19.414v164.452c0,7.617,2.665,14.089,7.994,19.417 c5.33,5.325,11.803,7.991,19.414,7.991h274.078c7.617,0,14.092-2.666,19.417-7.991c5.325-5.328,7.994-11.8,7.994-19.417V246.673 C383.719,239.059,381.053,232.591,375.721,227.259z"/></symbol><symbol id="cloud" viewBox="0 0 548.176 548.176"><title>upload</title><path d="M524.326,297.352c-15.896-19.89-36.21-32.782-60.959-38.684c7.81-11.8,11.704-24.934,11.704-39.399 c0-20.177-7.139-37.401-21.409-51.678c-14.273-14.272-31.498-21.411-51.675-21.411c-18.083,0-33.879,5.901-47.39,17.703 c-11.225-27.41-29.171-49.393-53.817-65.95c-24.646-16.562-51.818-24.842-81.514-24.842c-40.349,0-74.802,14.279-103.353,42.83 c-28.553,28.544-42.825,62.999-42.825,103.351c0,2.474,0.191,6.567,0.571,12.275c-22.459,10.469-40.349,26.171-53.676,47.106 C6.661,299.594,0,322.43,0,347.179c0,35.214,12.517,65.329,37.544,90.358c25.028,25.037,55.15,37.548,90.362,37.548h310.636 c30.259,0,56.096-10.711,77.512-32.12c21.413-21.409,32.121-47.246,32.121-77.516C548.172,339.944,540.223,317.248,524.326,297.352 z M362.729,289.648c-1.813,1.804-3.949,2.707-6.42,2.707h-63.953v100.502c0,2.471-0.903,4.613-2.711,6.42 c-1.813,1.813-3.949,2.711-6.42,2.711h-54.826c-2.474,0-4.615-0.897-6.423-2.711c-1.804-1.807-2.712-3.949-2.712-6.42V292.355 H155.31c-2.662,0-4.853-0.855-6.563-2.563c-1.713-1.714-2.568-3.904-2.568-6.566c0-2.286,0.95-4.572,2.852-6.855l100.213-100.21 c1.713-1.714,3.903-2.57,6.567-2.57c2.666,0,4.856,0.856,6.567,2.57l100.499,100.495c1.714,1.712,2.562,3.901,2.562,6.571 C365.438,285.696,364.535,287.845,362.729,289.648z"/></symbol><symbol id="like" viewBox="0 0 456.814 456.814"><title>thumbs-up-hand-symbol</title><path d="M441.11,252.677c10.468-11.99,15.704-26.169,15.704-42.54c0-14.846-5.432-27.692-16.259-38.547 c-10.849-10.854-23.695-16.278-38.541-16.278h-79.082c0.76-2.664,1.522-4.948,2.282-6.851c0.753-1.903,1.811-3.999,3.138-6.283 c1.328-2.285,2.283-3.999,2.852-5.139c3.425-6.468,6.047-11.801,7.857-15.985c1.807-4.192,3.606-9.9,5.42-17.133 c1.811-7.229,2.711-14.465,2.711-21.698c0-4.566-0.055-8.281-0.145-11.134c-0.089-2.855-0.574-7.139-1.423-12.85 c-0.862-5.708-2.006-10.467-3.43-14.272c-1.43-3.806-3.716-8.092-6.851-12.847c-3.142-4.764-6.947-8.613-11.424-11.565 c-4.476-2.95-10.184-5.424-17.131-7.421c-6.954-1.999-14.801-2.998-23.562-2.998c-4.948,0-9.227,1.809-12.847,5.426 c-3.806,3.806-7.047,8.564-9.709,14.272c-2.666,5.711-4.523,10.66-5.571,14.849c-1.047,4.187-2.238,9.994-3.565,17.415 c-1.719,7.998-2.998,13.752-3.86,17.273c-0.855,3.521-2.525,8.136-4.997,13.845c-2.477,5.713-5.424,10.278-8.851,13.706 c-6.28,6.28-15.891,17.701-28.837,34.259c-9.329,12.18-18.94,23.695-28.837,34.545c-9.899,10.852-17.131,16.466-21.698,16.847 c-4.755,0.38-8.848,2.331-12.275,5.854c-3.427,3.521-5.14,7.662-5.14,12.419v183.01c0,4.949,1.807,9.182,5.424,12.703 c3.615,3.525,7.898,5.38,12.847,5.571c6.661,0.191,21.698,4.374,45.111,12.566c14.654,4.941,26.12,8.706,34.4,11.272 c8.278,2.566,19.849,5.328,34.684,8.282c14.849,2.949,28.551,4.428,41.11,4.428h4.855h21.7h10.276 c25.321-0.38,44.061-7.806,56.247-22.268c11.036-13.135,15.697-30.361,13.99-51.679c7.422-7.042,12.565-15.984,15.416-26.836 c3.231-11.604,3.231-22.74,0-33.397c8.754-11.611,12.847-24.649,12.272-39.115C445.395,268.286,443.971,261.055,441.11,252.677z"/><path d="M100.5,191.864H18.276c-4.952,0-9.235,1.809-12.851,5.426C1.809,200.905,0,205.188,0,210.137v182.732 c0,4.942,1.809,9.227,5.426,12.847c3.619,3.611,7.902,5.421,12.851,5.421H100.5c4.948,0,9.229-1.81,12.847-5.421 c3.616-3.62,5.424-7.904,5.424-12.847V210.137c0-4.949-1.809-9.231-5.424-12.847C109.73,193.672,105.449,191.864,100.5,191.864z M67.665,369.308c-3.616,3.521-7.898,5.281-12.847,5.281c-5.14,0-9.471-1.76-12.99-5.281c-3.521-3.521-5.281-7.85-5.281-12.99 c0-4.948,1.759-9.232,5.281-12.847c3.52-3.617,7.85-5.428,12.99-5.428c4.949,0,9.231,1.811,12.847,5.428 c3.617,3.614,5.426,7.898,5.426,12.847C73.091,361.458,71.286,365.786,67.665,369.308z"/></symbol><symbol id="twitter" viewBox="0 0 449.956 449.956"><title>twitter</title><path d="M449.956,85.657c-17.702,7.614-35.408,12.369-53.102,14.279c19.985-11.991,33.503-28.931,40.546-50.819 c-18.281,10.847-37.787,18.268-58.532,22.267c-18.274-19.414-40.73-29.125-67.383-29.125c-25.502,0-47.246,8.992-65.24,26.98 c-17.984,17.987-26.977,39.731-26.977,65.235c0,6.851,0.76,13.896,2.284,21.128c-37.688-1.903-73.042-11.372-106.068-28.407 C82.46,110.158,54.433,87.46,31.403,59.101c-8.375,14.272-12.564,29.787-12.564,46.536c0,15.798,3.711,30.456,11.138,43.97 c7.422,13.512,17.417,24.455,29.98,32.831c-14.849-0.572-28.743-4.475-41.684-11.708v1.142c0,22.271,6.995,41.824,20.983,58.674 c13.99,16.848,31.645,27.453,52.961,31.833c-7.995,2.091-16.086,3.138-24.269,3.138c-5.33,0-11.136-0.475-17.416-1.42 c5.9,18.459,16.75,33.633,32.546,45.535c15.799,11.896,33.691,18.028,53.677,18.418c-33.498,26.262-71.66,39.393-114.486,39.393 c-8.186,0-15.607-0.373-22.27-1.139c42.827,27.596,90.03,41.394,141.612,41.394c32.738,0,63.478-5.181,92.21-15.557 c28.746-10.369,53.297-24.267,73.665-41.686c20.362-17.415,37.925-37.448,52.674-60.097c14.75-22.651,25.738-46.298,32.977-70.946 c7.23-24.653,10.848-49.344,10.848-74.092c0-5.33-0.096-9.325-0.287-11.991C421.785,120.202,437.202,104.306,449.956,85.657z"/></symbol><symbol id="facebook" viewBox="0 0 470.513 470.513"><title>logo-1</title><path d="M271.521,154.17v-40.541c0-6.086,0.28-10.8,0.849-14.13c0.567-3.335,1.857-6.615,3.859-9.853 c1.999-3.236,5.236-5.47,9.706-6.708c4.476-1.24,10.424-1.858,17.85-1.858h40.539V0h-64.809c-37.5,0-64.433,8.897-80.803,26.691 c-16.368,17.798-24.551,44.014-24.551,78.658v48.82h-48.542v81.086h48.539v235.256h97.362V235.256h64.805l8.566-81.086H271.521z"/></symbol><symbol id="google-plus" viewBox="0 0 475.092 475.092"><title>google-plus</title><path d="M273.372,302.498c-5.041-6.762-10.608-13.045-16.7-18.842c-6.091-5.804-12.183-11.088-18.271-15.845 c-6.092-4.757-11.659-9.329-16.702-13.709c-5.042-4.374-9.135-8.945-12.275-13.702c-3.14-4.757-4.711-9.61-4.711-14.558 c0-6.855,2.19-13.278,6.567-19.274c4.377-5.996,9.707-11.799,15.986-17.417c6.28-5.617,12.559-11.753,18.844-18.415 c6.276-6.665,11.604-15.465,15.985-26.412c4.373-10.944,6.563-23.458,6.563-37.542c0-16.75-3.713-32.835-11.136-48.25 c-7.423-15.418-17.89-27.412-31.405-35.976h38.54L303.2,0H178.441c-17.699,0-35.498,1.906-53.384,5.72 c-26.453,5.9-48.723,19.368-66.806,40.397C40.171,67.15,31.129,90.99,31.129,117.637c0,28.171,10.138,51.583,30.406,70.233 c20.269,18.649,44.585,27.978,72.945,27.978c5.71,0,12.371-0.478,19.985-1.427c-0.381,1.521-1.043,3.567-1.997,6.136 s-1.715,4.62-2.286,6.14c-0.57,1.521-1.047,3.375-1.425,5.566c-0.382,2.19-0.571,4.428-0.571,6.71 c0,12.563,6.086,26.744,18.271,42.541c-14.465,0.387-28.737,1.67-42.825,3.86c-14.084,2.19-28.833,5.616-44.252,10.28 c-15.417,4.661-29.217,11.42-41.396,20.27c-12.182,8.854-21.317,19.366-27.408,31.549C3.533,361.559,0.01,374.405,0.01,386.017 c0,12.751,2.857,24.314,8.565,34.69c5.708,10.369,13.035,18.842,21.982,25.406c8.945,6.57,19.273,12.083,30.978,16.562 c11.704,4.47,23.315,7.659,34.829,9.562c11.516,1.903,22.888,2.854,34.119,2.854c51.007,0,90.981-12.464,119.909-37.397 c26.648-23.223,39.971-50.062,39.971-80.517c0-10.855-1.57-20.984-4.712-30.409C282.51,317.337,278.42,309.254,273.372,302.498z M163.311,198.722c-9.707,0-18.937-2.475-27.694-7.426c-8.757-4.95-16.18-11.374-22.27-19.273 c-6.088-7.898-11.418-16.796-15.987-26.695c-4.567-9.896-7.944-19.792-10.135-29.692c-2.19-9.895-3.284-19.318-3.284-28.265 c0-18.271,4.854-33.974,14.562-47.108c9.705-13.134,23.411-19.701,41.112-19.701c12.563,0,23.935,3.899,34.118,11.704 c10.183,7.804,18.177,17.701,23.984,29.692c5.802,11.991,10.277,24.407,13.417,37.257c3.14,12.847,4.711,24.983,4.711,36.403 c0,19.036-4.139,34.317-12.419,45.833C195.144,192.964,181.775,198.722,163.311,198.722z M242.251,413.123 c-5.23,8.949-12.319,15.94-21.267,20.981c-8.946,5.048-18.509,8.758-28.693,11.14c-10.183,2.385-20.889,3.572-32.12,3.572 c-12.182,0-24.27-1.431-36.258-4.284c-11.99-2.851-23.459-7.187-34.403-12.991c-10.944-5.8-19.795-13.798-26.551-23.982 c-6.757-10.184-10.135-21.744-10.135-34.69c0-11.419,2.568-21.601,7.708-30.55c5.142-8.945,11.709-16.084,19.702-21.408 c7.994-5.332,17.319-9.713,27.979-13.131c10.66-3.433,20.937-5.808,30.833-7.139c9.895-1.335,19.985-1.995,30.262-1.995 c6.283,0,11.043,0.191,14.277,0.567c1.143,0.767,4.043,2.759,8.708,5.996s7.804,5.428,9.423,6.57 c1.615,1.137,4.567,3.326,8.85,6.563c4.281,3.237,7.327,5.661,9.135,7.279c1.803,1.618,4.421,4.045,7.849,7.279 c3.424,3.237,5.948,6.043,7.566,8.422c1.615,2.378,3.616,5.28,5.996,8.702c2.38,3.433,4.043,6.715,4.998,9.855 c0.948,3.142,1.854,6.567,2.707,10.277c0.855,3.72,1.283,7.569,1.283,11.57C250.105,393.713,247.487,404.182,242.251,413.123z"/><polygon points="401.998,73.089 401.998,0 365.449,0 365.449,73.089 292.358,73.089 292.358,109.636 365.449,109.636 365.449,182.725 401.998,182.725 401.998,109.636 475.081,109.636 475.081,73.089 "/></symbol><symbol id="linkedin" viewBox="0 0 438.536 438.535"><title>linkedin</title><rect x="5.424" y="145.895" width="94.216" height="282.932"/><path d="M408.842,171.739c-19.791-21.604-45.967-32.408-78.512-32.408c-11.991,0-22.891,1.475-32.695,4.427 c-9.801,2.95-18.079,7.089-24.838,12.419c-6.755,5.33-12.135,10.278-16.129,14.844c-3.798,4.337-7.512,9.389-11.136,15.104 v-40.232h-93.935l0.288,13.706c0.193,9.139,0.288,37.307,0.288,84.508c0,47.205-0.19,108.777-0.572,184.722h93.931V270.942 c0-9.705,1.041-17.412,3.139-23.127c4-9.712,10.037-17.843,18.131-24.407c8.093-6.572,18.13-9.855,30.125-9.855 c16.364,0,28.407,5.662,36.117,16.987c7.707,11.324,11.561,26.98,11.561,46.966V428.82h93.931V266.664 C438.529,224.976,428.639,193.336,408.842,171.739z"/><path d="M53.103,9.708c-15.796,0-28.595,4.619-38.4,13.848C4.899,32.787,0,44.441,0,58.529c0,13.891,4.758,25.505,14.275,34.829 c9.514,9.325,22.078,13.99,37.685,13.99h0.571c15.99,0,28.887-4.661,38.688-13.99c9.801-9.324,14.606-20.934,14.417-34.829 c-0.19-14.087-5.047-25.742-14.561-34.973C81.562,14.323,68.9,9.708,53.103,9.708z"/></symbol><symbol id="graduation" viewBox="0 0 640 512"><title>graduation-cap-solid</title><path d="M622.34,153.2L343.4 67.5c-15.2-4.67-31.6-4.67-46.79 0L17.66 153.2c-23.54 7.23-23.54 38.36 0 45.59l48.63 14.94c-10.67 13.19-17.23 29.28-17.88 46.9C38.78 266.15 32 276.11 32 288c0 10.78 5.68 19.85 13.86 25.65L20.33 428.53C18.11 438.52 25.71 448 35.94 448h56.11c10.24 0 17.84-9.48 15.62-19.47L82.14 313.65C90.32 307.85 96 298.78 96 288c0-11.57-6.47-21.25-15.66-26.87.76-15.02 8.44-28.3 20.69-36.72L296.6 284.5c9.06 2.78 26.44 6.25 46.79 0l278.95-85.7c23.55-7.24 23.55-38.36 0-45.6zM352.79 315.09c-28.53 8.76-52.84 3.92-65.59 0l-145.02-44.55L128 384c0 35.35 85.96 64 192 64s192-28.65 192-64l-14.18-113.47-145.03 44.56z"/></symbol></svg>