<svg xmlns="http://www.w3.org/2000/svg" style="display: none;"><symbol id="rocket" viewBox="0 0 428.409 428.409"><title>rocket</title><g> <g> <path d="M428.409,0.152l-140.8,17.408l-46.08,45.568l-81.92-5.632L41.338,157.848l81.408,24.576l-25.088,25.088l123.392,123.392 l25.088-25.088l24.576,81.408L371.065,268.44l-5.632-81.92l46.08-46.08L428.409,0.152z M267.641,204.952 c-24.576,0-44.544-19.968-44.544-45.056c0-25.088,19.968-44.544,45.056-44.544c11.776,0,23.04,4.608,31.744,13.312 c8.192,8.704,12.8,19.968,12.8,31.744C312.697,184.984,292.729,204.952,267.641,204.952z"/> </g> </g><g> <g> <polygon points="90.49,229.528 37.753,256.664 171.898,390.808 199.545,338.072 "/> </g> </g><g> <g> <rect x="12.843" y="357.123" transform="matrix(0.7071 -0.7071 0.7071 0.7071 -246.9518 148.7713)" width="86.527" height="30.72"/> </g> </g><g> <g> <rect x="67.268" y="380.495" transform="matrix(0.7071 -0.7071 0.7071 0.7071 -251.2867 185.0499)" width="60.927" height="30.72"/> </g> </g><g> <g> <rect x="1.938" y="315.369" transform="matrix(0.7071 -0.7071 0.7071 0.7071 -224.37 119.7799)" width="60.927" height="30.72"/> </g> </g></symbol><symbol id="web-design" viewBox="0 0 100 100"><title>website-design-symbol</title><path d="M62.924,94.729c-1.732-1.274-1.918-3.188-1.918-3.188l-0.65-4.155H39.642l-0.652,4.152c0,0-0.181,1.916-1.914,3.19 c-1.732,1.274-3.099,2.368-1.732,2.554c1.317,0.178,13.74,0.016,14.656,0c0.918,0.016,13.338,0.178,14.654,0 C66.02,97.098,64.652,96.006,62.924,94.729z"/><g> <path d="M26.666,61.538c5.534-0.043,6.223-1.377,8.027-6.933c3.327-8.768,18.309,2.296,9.024,6.136 C34.432,64.583,21.132,61.581,26.666,61.538z"/> <path d="M83.41,3.756c-2.688-2.164-7.135-1.098-9.938,2.38L45.082,46.472c-2.803,3.477-2.789,2.813-0.104,4.975 c2.685,2.164,2.038,2.319,4.841-1.158l33.376-36.317C85.998,10.492,86.096,5.919,83.41,3.756z M76.109,8.584 c0,0-0.416-0.483-1.799-1.589c2.074-3.387,6.15-2.766,6.15-2.766C76.596,6.511,76.109,8.584,76.109,8.584z"/> </g><path d="M96,17.386H83.516l-5.515,6h16v48h-88v-48h51.19l4.227-6H4c-2.209,0-4,1.791-4,4v58c0,2.209,1.791,4,4,4h92 c2.209,0,4-1.791,4-4v-58C100,19.177,98.209,17.386,96,17.386z"/></symbol><symbol id="diagram" viewBox="0 0 512 512"><title>board</title><path d="m331 0h-150v30h-181v331h91v151h90v-91h150v91h90c0-24.089844 0-115.523438 0-151h91v-331h-181zm-120 30h90v30h-90zm-60 452h-30v-61h30zm240 0h-30v-61h30zm0-91h-270v-30h270zm91-331v271h-452v-271h151v30h150v-30zm0 0"/><path d="m301 151h-30v120h-30v-151h-30v151h-30v-90h-30v90h-30v-60h-30v60h-31v30h271v-30h-30zm0 0"/><path d="m361 151h91v30h-91zm0 0"/><path d="m361 211h91v30h-91zm0 0"/><path d="m361 271h91v30h-91zm0 0"/></symbol><symbol id="speaker" viewBox="0 0 460.656 460.656"><title>amplification-tool-silhouette-in-black</title><path d="M44.166,304.349l27.208,126.783c0,0,3.839,16.271,33.246,16.271s51.145,0,51.145,0l-10.886-48.734 c8.383-3.888,13.258-13.173,11.192-22.57l-8.187-37.253c-2.09-9.489-10.553-15.945-19.909-15.821l-3.304-14.812H225.36 l169.013,92.792c36.616,0,66.283-29.667,66.283-66.282V79.534c0-36.607-29.667-66.281-66.283-66.281L225.36,119.304H66.279 C29.673,119.304,0,148.981,0,185.583v56.347C0,270.759,18.444,295.224,44.166,304.349z"/></symbol><symbol id="mouse" viewBox="0 0 401.396 401.396"><title>mouse</title><path d="m200.698,0c-68.997,0-125.13,56.133-125.13,125.129v151.137c0,68.997 56.133,125.129 125.13,125.129s125.129-56.133 125.129-125.129v-151.137c0-68.996-56.132-125.129-125.129-125.129zm110.129,125.129v1.973c-32.303,16.982-68.429,26.282-105.133,27.057v-41.835c10.585-2.298 18.539-11.734 18.539-22.997v-31.367c0-11.263-7.954-20.699-18.539-22.997v-19.845c58.416,2.622 105.133,50.961 105.133,110.011zm-110.129-80.705c7.463-7.10543e-15 13.536,6.072 13.536,13.536v31.368c0,7.463-6.072,13.536-13.536,13.536s-13.536-6.072-13.536-13.536v-31.368c0-7.463 6.073-13.536 13.536-13.536zm-5.003-29.305v19.846c-10.581,2.301-18.532,11.735-18.532,22.995v31.368c0,11.26 7.951,20.694 18.532,22.995v41.837c-36.699-0.775-72.823-10.076-105.126-27.059v-1.971c-0.001-59.049 46.714-107.386 105.126-110.011zm5.003,371.277c-60.726-5.68434e-14-110.13-49.404-110.13-110.129v-137.928c34.015,16.958 71.851,25.88 110.126,25.88 38.28,0 76.118-8.921 110.133-25.878v137.925c0,60.726-49.403,110.13-110.129,110.13z"/></symbol><symbol id="arrow-down" viewBox="0 0 32.634 32.634"><title>download</title><path d="M16.317,32.634c-0.276,0-0.5-0.224-0.5-0.5V0.5c0-0.276,0.224-0.5,0.5-0.5s0.5,0.224,0.5,0.5v31.634 C16.817,32.41,16.593,32.634,16.317,32.634z"/><path d="M16.315,32.634L16.315,32.634c-0.133,0-0.26-0.053-0.354-0.146L3.428,19.951c-0.195-0.195-0.195-0.512,0-0.707 s0.512-0.195,0.707,0l12.179,12.183l12.184-12.183c0.195-0.195,0.512-0.195,0.707,0s0.195,0.512,0,0.707L16.668,32.487 C16.574,32.581,16.448,32.634,16.315,32.634z"/></symbol><symbol id="light-bulb" viewBox="0 0 455.881 455.881"><title>light-bulb</title><path d="m321.218,257.555c15.516-20.46 23.717-44.881 23.717-70.624 0-31.563-12.379-61.151-34.857-83.314-22.474-22.158-52.261-34.124-83.828-33.668-30.591,0.433-59.412,12.708-81.154,34.564-21.741,21.855-33.867,50.741-34.145,81.335-0.238,26.228 8.011,51.088 23.855,71.894 25.721,33.776 39.887,75.149 39.887,116.498v45.244c0,20.069 16.327,36.396 36.396,36.396h33.854c20.069,0 36.396-16.328 36.396-36.396v-45.241c0.001-41.806 13.691-82.157 39.879-116.688zm-174.478-8.9c-13.808-18.132-20.997-39.803-20.79-62.67 0.499-54.935 45.588-100.26 100.512-101.037 27.553-0.37 53.493,10.035 73.084,29.352 19.597,19.321 30.389,45.116 30.389,72.632 0,22.442-7.147,43.729-20.669,61.56-27.593,36.385-42.45,78.833-43.058,122.93h-76.536c-0.627-43.669-15.817-87.161-42.932-122.767zm42.953,165.746v-6.072l76.647,8.781v2.374c0,1.25-0.13,2.468-0.336,3.659l-76.311-8.742zm0-21.17v-6.809h76.647v15.59l-76.647-8.781zm21.396,47.65c-8.057,0-15.082-4.48-18.731-11.077l64.567,7.397c-3.421,2.321-7.545,3.679-11.981,3.679h-33.855z"/><path d="m153.776,198.213c-0.585-3.925-0.864-7.957-0.827-11.983 0.038-4.142-3.289-7.53-7.431-7.568-4.114-0.036-7.53,3.289-7.568,7.431-0.044,4.81 0.289,9.632 0.99,14.333 0.555,3.722 3.755,6.395 7.409,6.395 0.368,0 0.741-0.027 1.116-0.083 4.096-0.612 6.922-4.428 6.311-8.525z"/><path d="m197.913,312.135c0.776,0 1.566-0.122 2.344-0.377 3.935-1.294 6.076-5.533 4.782-9.467-8.312-25.277-20.7-48.827-36.82-69.994-2.664-3.499-5.025-7.226-7.016-11.079-1.902-3.68-6.427-5.12-10.107-3.218-3.679,1.902-5.12,6.427-3.218,10.107 2.39,4.622 5.218,9.089 8.408,13.278 15.106,19.836 26.715,41.904 34.504,65.591 1.038,3.157 3.971,5.159 7.123,5.159z"/><path d="m306.746,212.613c-3.804-1.639-8.217,0.117-9.855,3.921-2.376,5.518-5.451,10.781-9.139,15.643-2.503,3.3-1.856,8.005 1.444,10.508 1.355,1.028 2.947,1.524 4.526,1.524 2.267,0 4.507-1.023 5.982-2.969 4.419-5.827 8.107-12.143 10.963-18.772 1.639-3.804-0.116-8.217-3.921-9.855z"/><path d="m227.941,111.938c41.352,0 74.994,33.643 74.994,74.995 0,2.351-0.108,4.72-0.321,7.041-0.378,4.125 2.658,7.775 6.783,8.154 0.233,0.021 0.464,0.032 0.694,0.032 3.833,0 7.103-2.923 7.46-6.815 0.254-2.775 0.384-5.605 0.384-8.412 0-49.623-40.371-89.995-89.994-89.995-4.142,0-7.5,3.358-7.5,7.5s3.358,7.5 7.5,7.5z"/><path d="m227.941,57c4.142,0 7.5-3.358 7.5-7.5v-42c0-4.142-3.358-7.5-7.5-7.5s-7.5,3.358-7.5,7.5v42c0,4.142 3.358,7.5 7.5,7.5z"/><path d="m152.065,71.82c1.39,2.407 3.91,3.752 6.502,3.752 1.272,0 2.562-0.324 3.743-1.006 3.587-2.071 4.817-6.658 2.746-10.245l-20.99-36.36c-2.072-3.588-6.658-4.817-10.245-2.746-3.587,2.071-4.817,6.658-2.746,10.245l20.99,36.36z"/><path d="m388.22,272.115l-36.36-20.99c-3.588-2.072-8.175-0.842-10.245,2.746-2.071,3.587-0.842,8.174 2.746,10.245l36.36,20.99c1.181,0.682 2.47,1.006 3.743,1.006 2.592,0 5.113-1.346 6.502-3.752 2.071-3.587 0.841-8.174-2.746-10.245z"/><path d="m67.661,104.366l36.36,20.99c1.181,0.682 2.47,1.006 3.743,1.006 2.592,0 5.113-1.346 6.502-3.752 2.071-3.587 0.842-8.174-2.746-10.245l-36.36-20.99c-3.587-2.072-8.174-0.842-10.245,2.746-2.071,3.587-0.842,8.173 2.746,10.245z"/><path d="m408.68,180.74h-42c-4.142,0-7.5,3.358-7.5,7.5s3.358,7.5 7.5,7.5h42c4.142,0 7.5-3.358 7.5-7.5s-3.357-7.5-7.5-7.5z"/><path d="m96.7,188.24c0-4.142-3.358-7.5-7.5-7.5h-42c-4.142,0-7.5,3.358-7.5,7.5s3.358,7.5 7.5,7.5h42c4.143,0 7.5-3.358 7.5-7.5z"/><path d="m348.117,126.362c1.272,0 2.562-0.324 3.743-1.006l36.36-20.99c3.587-2.071 4.817-6.658 2.746-10.245-2.071-3.587-6.659-4.817-10.245-2.746l-36.36,20.99c-3.587,2.071-4.817,6.658-2.746,10.245 1.389,2.406 3.911,3.752 6.502,3.752z"/><path d="m104.021,251.125l-36.36,20.99c-3.587,2.071-4.817,6.658-2.746,10.245 1.389,2.406 3.91,3.752 6.502,3.752 1.272,0 2.562-0.324 3.743-1.006l36.36-20.99c3.587-2.071 4.817-6.658 2.746-10.245-2.07-3.588-6.66-4.817-10.245-2.746z"/><path d="m293.571,74.566c1.181,0.682 2.47,1.006 3.743,1.006 2.592,0 5.113-1.346 6.502-3.752l20.99-36.36c2.071-3.587 0.841-8.174-2.746-10.245-3.586-2.071-8.174-0.842-10.245,2.746l-20.99,36.36c-2.071,3.587-0.841,8.174 2.746,10.245z"/></symbol><symbol id="graph-screen" viewBox="0 0 502.664 502.664"><title>graph-line-screen</title><path style="fill:#010002;" d="M472.077,25.432H30.609C13.762,25.432,0,39.216,0,56.019v317.414 c0,16.782,13.762,30.587,30.609,30.587h441.468c16.825,0,30.587-13.805,30.587-30.587V56.019 C502.664,39.216,488.902,25.432,472.077,25.432z M464.376,350.935H38.288V68.336h426.088V350.935z"/><polygon style="fill:#010002;" points="194.698,418.538 136.931,477.232 366.574,477.232 308.807,418.538 "/><path style="fill:#010002;" d="M103.346,294.269c11.282,0,20.471-9.168,20.471-20.449c0-2.049-0.604-3.904-1.165-5.781 c26.165-21.096,72.392-58.284,93.466-74.527c3.322,2.351,7.183,4.034,11.562,4.034c3.645,0,6.881-1.208,9.836-2.869 c13.546,11.519,36.584,31.105,52.935,45.018c-0.216,1.186-0.69,2.243-0.69,3.494c0,11.303,9.189,20.471,20.492,20.471 s20.492-9.168,20.492-20.471c0-2.006-0.604-3.84-1.143-5.673l52.935-47.801c2.847,1.488,5.91,2.545,9.362,2.545 c11.303,0,20.471-9.168,20.471-20.471s-9.168-20.471-20.471-20.471s-20.449,9.168-20.449,20.492c0,2.696,0.582,5.263,1.531,7.614 c-14.798,13.352-37.619,33.974-51.856,46.83c-3.171-2.049-6.752-3.559-10.85-3.559c-4.832,0-9.06,1.92-12.554,4.702 c-13.525-11.497-35.398-30.091-50.95-43.314c0.82-2.2,1.402-4.508,1.402-7.01c0-11.303-9.168-20.471-20.471-20.471 s-20.471,9.168-20.471,20.471c0,2.502,0.604,4.832,1.424,7.032l-93.962,73.103c-3.279-2.243-7.054-3.883-11.325-3.883 c-11.303,0-20.471,9.168-20.471,20.471C82.875,285.101,92.043,294.269,103.346,294.269z"/></symbol><symbol id="gears-head" viewBox="0 0 28.874 28.873"><title>gears-in-bald-head-side-view</title><circle cx="11.053" cy="8.619" r="2.35"/><circle cx="16.161" cy="17.37" r="1.507"/><path d="M24.423,12.417c1.894-9.269-5.637-13.511-13.995-12.176C2.069,1.574,2.383,6.63,1.891,9.043 C0.912,15.09,7.137,21.848,7.137,21.848l-0.355,7.025h10.136l0.776-3.23c0,0,0.44,0.738,3.059,0.96 c2.62,0.222,2.301-2.976,2.301-2.976s1.744-0.77,1.744-1.346c0-0.578-1.032-1.322-1.032-1.322s1.109,0.199,1.511-0.268 c0.399-0.467-0.49-2.154-0.49-2.154s1.368-0.035,2.174-0.922C27.767,16.729,24.423,14.106,24.423,12.417z M9.946,13.684 c0,0-0.057-0.626-0.085-0.939c-0.252-0.067-0.495-0.156-0.728-0.26c-0.276,0.234-0.828,0.701-0.828,0.701 s-0.094,0.052-0.141,0.078c-0.047,0.025-0.925-0.078-0.925-0.078l-1.51-1.783v-1.065c0,0,0.581-0.492,0.871-0.738 C6.537,9.361,6.499,9.118,6.482,8.867C6.101,8.692,5.341,8.345,5.341,8.345L5.036,7.458l0.035-0.145l0.975-2.124l1.031-0.271 c0,0,0.656,0.3,0.983,0.449c0.2-0.162,0.416-0.309,0.644-0.438C8.671,4.534,8.607,3.743,8.607,3.743L9.361,2.99l2.328-0.188 l0.754,0.754c0,0,0.048,0.601,0.073,0.901c0.303,0.082,0.592,0.191,0.867,0.324c0.252-0.217,0.757-0.649,0.757-0.649h1.067 l1.521,1.774V6.97c0,0-0.617,0.528-0.926,0.793c0.046,0.215,0.07,0.437,0.081,0.661c0.39,0.225,1.168,0.675,1.168,0.675 l0.271,1.031l-1.169,2.022l-1.031,0.271c0,0-0.605-0.35-0.908-0.524c-0.171,0.133-0.354,0.251-0.544,0.36 c0.036,0.404,0.109,1.211,0.109,1.211l-0.753,0.754l-2.325,0.212L9.946,13.684z M19.431,19.637l-0.661,0.174 c0,0-0.388-0.225-0.583-0.336c-0.11,0.085-0.228,0.16-0.35,0.23c0.023,0.26,0.07,0.776,0.07,0.776l-0.482,0.483l-1.491,0.136 l-0.483-0.483c0,0-0.037-0.4-0.055-0.603c-0.162-0.043-0.317-0.101-0.466-0.167c-0.177,0.15-0.531,0.449-0.531,0.449 s-0.061,0.033-0.09,0.051c-0.03,0.018-0.594-0.051-0.594-0.051l-0.968-1.145v-0.684c0,0,0.372-0.315,0.558-0.473 c-0.04-0.152-0.064-0.31-0.075-0.471c-0.245-0.111-0.732-0.335-0.732-0.335l-0.196-0.567l0.022-0.094l0.625-1.361l0.662-0.174 c0,0,0.42,0.191,0.63,0.288c0.128-0.104,0.267-0.197,0.413-0.281c-0.02-0.253-0.061-0.762-0.061-0.762l0.483-0.483l1.493-0.12 l0.484,0.483c0,0,0.03,0.385,0.046,0.578c0.194,0.053,0.38,0.123,0.556,0.208c0.162-0.139,0.486-0.417,0.486-0.417h0.685 l0.977,1.14v0.684c0,0-0.396,0.339-0.595,0.509c0.03,0.138,0.045,0.28,0.052,0.425c0.25,0.145,0.75,0.432,0.75,0.432l0.173,0.662 L19.431,19.637z"/></symbol><symbol id="twitter" viewBox="0 0 486.392 486.392"><title>twitter</title><path style="fill:#010002;" d="M243.196,0C108.891,0,0,108.891,0,243.196s108.891,243.196,243.196,243.196 s243.196-108.891,243.196-243.196C486.392,108.861,377.501,0,243.196,0z M364.186,188.598l0.182,7.752 c0,79.16-60.221,170.359-170.359,170.359c-33.804,0-65.268-9.91-91.776-26.904c4.682,0.547,9.454,0.851,14.288,0.851 c28.059,0,53.868-9.576,74.357-25.627c-26.204-0.486-48.305-17.814-55.935-41.586c3.678,0.699,7.387,1.034,11.278,1.034 c5.472,0,10.761-0.699,15.777-2.067c-27.39-5.533-48.031-29.7-48.031-58.701v-0.76c8.086,4.499,17.297,7.174,27.116,7.509 c-16.051-10.731-26.63-29.062-26.63-49.825c0-10.974,2.949-21.249,8.086-30.095c29.518,36.236,73.658,60.069,123.422,62.562 c-1.034-4.378-1.55-8.968-1.55-13.649c0-33.044,26.812-59.857,59.887-59.857c17.206,0,32.771,7.265,43.714,18.908 c13.619-2.706,26.448-7.691,38.03-14.531c-4.469,13.984-13.953,25.718-26.326,33.135c12.069-1.429,23.651-4.682,34.382-9.424 C386.073,169.659,375.889,180.208,364.186,188.598z"/></symbol><symbol id="facebook" viewBox="0 0 486.392 486.392"><title>facebook-logo-button</title><path style="fill:#010002;" d="M243.196,0C108.891,0,0,108.891,0,243.196s108.891,243.196,243.196,243.196 s243.196-108.891,243.196-243.196C486.392,108.861,377.501,0,243.196,0z M306.062,243.165l-39.854,0.03l-0.03,145.917h-54.689 V243.196H175.01v-50.281l36.479-0.03l-0.061-29.609c0-41.039,11.126-65.997,59.431-65.997h40.249v50.311h-25.171 c-18.817,0-19.729,7.022-19.729,20.124l-0.061,25.171h45.234L306.062,243.165z"/></symbol><symbol id="linkedin" viewBox="0 0 486.392 486.392"><title>linkedin-button</title><path style="fill:#010002;" d="M243.196,0C108.891,0,0,108.891,0,243.196s108.891,243.196,243.196,243.196 s243.196-108.891,243.196-243.196C486.392,108.861,377.501,0,243.196,0z M182.397,360.994h-60.799V148.197h60.799V360.994z M153.882,135.156c-15.747,0-28.484-12.768-28.484-28.515s12.768-28.515,28.484-28.515c15.747,0.03,28.515,12.798,28.515,28.515 C182.397,122.388,169.629,135.156,153.882,135.156z M395.193,360.994h-60.799V229.425c0-15.413-4.408-26.204-23.347-26.204 c-31.403,0-37.452,26.204-37.452,26.204v131.569h-60.799V148.197h60.799v20.337c8.694-6.657,30.399-20.307,60.799-20.307 c19.699,0,60.799,11.795,60.799,83.051V360.994z"/></symbol><symbol id="quotes" viewBox="0 0 349.078 349.078"><title>quotation-mark</title><path d="M150.299,26.634v58.25c0,7.9-6.404,14.301-14.304,14.301c-28.186,0-43.518,28.909-45.643,85.966h45.643 c7.9,0,14.304,6.407,14.304,14.304v122.992c0,7.896-6.404,14.298-14.304,14.298H14.301C6.398,336.745,0,330.338,0,322.447V199.455 c0-27.352,2.754-52.452,8.183-74.611c5.568-22.721,14.115-42.587,25.396-59.048c11.608-16.917,26.128-30.192,43.16-39.44 C93.886,17.052,113.826,12.333,136,12.333C143.895,12.333,150.299,18.734,150.299,26.634z M334.773,99.186 c7.896,0,14.305-6.407,14.305-14.301v-58.25c0-7.9-6.408-14.301-14.305-14.301c-22.165,0-42.108,4.72-59.249,14.023 c-17.035,9.248-31.563,22.523-43.173,39.44c-11.277,16.461-19.824,36.328-25.393,59.054c-5.426,22.166-8.18,47.266-8.18,74.605 v122.992c0,7.896,6.406,14.298,14.304,14.298h121.69c7.896,0,14.299-6.407,14.299-14.298V199.455 c0-7.896-6.402-14.304-14.299-14.304h-44.992C291.873,128.095,306.981,99.186,334.773,99.186z"/></symbol><symbol id="arrow-back" viewBox="0 0 490 490"><title>back</title><path d="M490,9.914L339.228,245L490,480.086L0,245L490,9.914z"/></symbol><symbol id="arrow-next" viewBox="0 0 490 490"><title>next</title><path d="M0,480.086L150.771,245L0,9.914L490,245L0,480.086z"/></symbol>
<symbol id="like" viewBox="0 0 456.814 456.814"><title>like</title><path d="M441.11,252.677c10.468-11.99,15.704-26.169,15.704-42.54c0-14.846-5.432-27.692-16.259-38.547 c-10.849-10.854-23.695-16.278-38.541-16.278h-79.082c0.76-2.664,1.522-4.948,2.282-6.851c0.753-1.903,1.811-3.999,3.138-6.283 c1.328-2.285,2.283-3.999,2.852-5.139c3.425-6.468,6.047-11.801,7.857-15.985c1.807-4.192,3.606-9.9,5.42-17.133 c1.811-7.229,2.711-14.465,2.711-21.698c0-4.566-0.055-8.281-0.145-11.134c-0.089-2.855-0.574-7.139-1.423-12.85 c-0.862-5.708-2.006-10.467-3.43-14.272c-1.43-3.806-3.716-8.092-6.851-12.847c-3.142-4.764-6.947-8.613-11.424-11.565 c-4.476-2.95-10.184-5.424-17.131-7.421c-6.954-1.999-14.801-2.998-23.562-2.998c-4.948,0-9.227,1.809-12.847,5.426 c-3.806,3.806-7.047,8.564-9.709,14.272c-2.666,5.711-4.523,10.66-5.571,14.849c-1.047,4.187-2.238,9.994-3.565,17.415 c-1.719,7.998-2.998,13.752-3.86,17.273c-0.855,3.521-2.525,8.136-4.997,13.845c-2.477,5.713-5.424,10.278-8.851,13.706 c-6.28,6.28-15.891,17.701-28.837,34.259c-9.329,12.18-18.94,23.695-28.837,34.545c-9.899,10.852-17.131,16.466-21.698,16.847 c-4.755,0.38-8.848,2.331-12.275,5.854c-3.427,3.521-5.14,7.662-5.14,12.419v183.01c0,4.949,1.807,9.182,5.424,12.703 c3.615,3.525,7.898,5.38,12.847,5.571c6.661,0.191,21.698,4.374,45.111,12.566c14.654,4.941,26.12,8.706,34.4,11.272 c8.278,2.566,19.849,5.328,34.684,8.282c14.849,2.949,28.551,4.428,41.11,4.428h4.855h21.7h10.276 c25.321-0.38,44.061-7.806,56.247-22.268c11.036-13.135,15.697-30.361,13.99-51.679c7.422-7.042,12.565-15.984,15.416-26.836 c3.231-11.604,3.231-22.74,0-33.397c8.754-11.611,12.847-24.649,12.272-39.115C445.395,268.286,443.971,261.055,441.11,252.677z"/><path d="M100.5,191.864H18.276c-4.952,0-9.235,1.809-12.851,5.426C1.809,200.905,0,205.188,0,210.137v182.732 c0,4.942,1.809,9.227,5.426,12.847c3.619,3.611,7.902,5.421,12.851,5.421H100.5c4.948,0,9.229-1.81,12.847-5.421 c3.616-3.62,5.424-7.904,5.424-12.847V210.137c0-4.949-1.809-9.231-5.424-12.847C109.73,193.672,105.449,191.864,100.5,191.864z M67.665,369.308c-3.616,3.521-7.898,5.281-12.847,5.281c-5.14,0-9.471-1.76-12.99-5.281c-3.521-3.521-5.281-7.85-5.281-12.99 c0-4.948,1.759-9.232,5.281-12.847c3.52-3.617,7.85-5.428,12.99-5.428c4.949,0,9.231,1.811,12.847,5.428 c3.617,3.614,5.426,7.898,5.426,12.847C73.091,361.458,71.286,365.786,67.665,369.308z"/></symbol></svg>
